# xmcd
#
# Track frame offsets: 
#        183
#        16445
#        37115
#
# Disc length: 677 seconds
#
# Revision: 0
# Processed by: cddbd v1.5.2PL0 Copyright (c) Steve Scherf et al.
# Submitted via: ExactAudioCopyFreeDBPlugin 1.0
#
DISCID=1f02a303
DTITLE=Peio Serbielle - KOBLALARIAK
DYEAR=1992
DGENRE=Alternative
TTITLE0=Koblalariak
TTITLE1=Bakus
TTITLE2=Ene Soek
EXTD=
EXTT0=
EXTT1=
EXTT2=
PLAYORDER=
